<svg xmlns="http://www.w3.org/2000/svg" viewBox="0 0 165.28 157.12"><defs><style>.cls-1,.cls-2,.cls-3,.cls-4,.cls-6,.cls-7{fill:none;}.cls-1,.cls-2,.cls-3,.cls-4,.cls-5,.cls-6,.cls-7,.cls-8{stroke:#378dbd;}.cls-1,.cls-4,.cls-5,.cls-6,.cls-7,.cls-8{stroke-linecap:round;}.cls-1,.cls-2,.cls-3{stroke-miterlimit:10;}.cls-1,.cls-2,.cls-8{stroke-width:2.22px;}.cls-3{stroke-width:1.8px;}.cls-4,.cls-5,.cls-6,.cls-7,.cls-8{stroke-linejoin:round;}.cls-4{stroke-width:1.77px;}.cls-5{fill:#378dbd;stroke-width:0.56px;}.cls-6{stroke-width:0.9px;}.cls-7{stroke-width:1.34px;}.cls-8{fill:#fff;}</style></defs><g id="Layer_2" data-name="Layer 2"><g id="Layer_1-2" data-name="Layer 1"><path class="cls-1" d="M58.41,47.46c-3.43-6-7.9-8.63-6.32-12.54.79-2,1.67-3.18,5.23-3.87s24.73-.45,34.36,14.36c2.22,3.4,3.12,6.23,3.06,8.6"/><path class="cls-2" d="M88.49,31.48l-.95,0H86.1a97.26,97.26,0,0,0-12.78.86c-.48-.57-1-1.14-1.58-1.73-12.49-12.49-33.26-8.34-36.6-6.93s-3.94,2.78-4.31,4.87C30,33.41,36.92,34.82,42,42.64a62.37,62.37,0,0,0-20.22,18l-11.24-.91c-5.17-.42-9.43,3.65-9.43,8.12V98.16s0,6.47,3.49,9.5c13.57,11.77,28.76,18.51,38.22,21.92l-.51,17.12a5.82,5.82,0,0,0,4.63,6.77l13,2.44a5.81,5.81,0,0,0,6.77-4.63l4.42-12.19a96.46,96.46,0,0,0,15,1.16,94.67,94.67,0,0,0,23.56-2.94l4,12.38a5.82,5.82,0,0,0,6.65,4.81l13.06-2.08a5.82,5.82,0,0,0,4.81-6.65l.09-22.1c12.64-9.79,20.44-23.12,20.44-37.82,0-.6,0-1.2-.06-1.8,1.33-1,3.26-2.62,3.12-4.34l-.1-1.21a3.78,3.78,0,0,0,2.46-3.85l-.48-5.78a3.79,3.79,0,0,0-4-3.46,4.75,4.75,0,0,0-3.95-1.61l-3,.26c-6.2-10.61-16.79-19.45-30-25.24l-1.35-.58"/><circle class="cls-3" cx="51.76" cy="70.16" r="4.69"/><path class="cls-4" d="M90.09,35.12c-.28-.38-.55-.77-.82-1.17a21.35,21.35,0,1,1,30.29,5.65l-1.09.73c-.38.23-.77.46-1.16.67"/><path class="cls-5" d="M118.18,14.58a3.12,3.12,0,0,0-.23-2.26,3.2,3.2,0,0,0-2-1.13,3.17,3.17,0,0,0,.24,2.27A3.13,3.13,0,0,0,118.18,14.58Z"/><path class="cls-5" d="M119.72,16.46a3.16,3.16,0,0,0,1.7-1.51,3.14,3.14,0,0,0-.22-2.26,3.13,3.13,0,0,0-1.71,1.5A3.14,3.14,0,0,0,119.72,16.46Z"/><path class="cls-5" d="M120.91,20.21a3.15,3.15,0,0,0,1.88-1.28,3.16,3.16,0,0,0,.06-2.27A3.13,3.13,0,0,0,121,17.94,3.1,3.1,0,0,0,120.91,20.21Z"/><path class="cls-5" d="M121.1,24.8a3.12,3.12,0,0,0,2.2-.58,3.15,3.15,0,0,0,.81-2.13,3.15,3.15,0,0,0-2.2.59A3.12,3.12,0,0,0,121.1,24.8Z"/><path class="cls-5" d="M119.68,28.64a2.49,2.49,0,0,0,3.84-1.25,2.49,2.49,0,0,0-3.84,1.25Z"/><path class="cls-5" d="M117.58,31.42a2.5,2.5,0,0,0,3.93,1,2.49,2.49,0,0,0-3.93-1Z"/><path class="cls-5" d="M114.35,34.17a3.14,3.14,0,0,0,1.71,1.5,3.18,3.18,0,0,0,2.22-.51,2.5,2.5,0,0,0-3.93-1Z"/><path class="cls-5" d="M117.29,19.69a3.12,3.12,0,0,0,1,2,3.15,3.15,0,0,0,2.25.36,3.14,3.14,0,0,0-1-2A3.15,3.15,0,0,0,117.29,19.69Z"/><path class="cls-5" d="M117.4,23.32a3.12,3.12,0,0,0,.65,2.17,3.12,3.12,0,0,0,2.15.74,3.12,3.12,0,0,0-.65-2.17A3.12,3.12,0,0,0,117.4,23.32Z"/><path class="cls-5" d="M116.36,26.7a3.1,3.1,0,0,0-.08,2.27,3.12,3.12,0,0,0,1.79,1.39,3.1,3.1,0,0,0,.08-2.27A3.12,3.12,0,0,0,116.36,26.7Z"/><path class="cls-5" d="M115.12,29.76a3.11,3.11,0,0,0-1.39,1.8,3.16,3.16,0,0,0,.65,2.18,3.15,3.15,0,0,0,1.39-1.8A3.16,3.16,0,0,0,115.12,29.76Z"/><path class="cls-5" d="M116.05,16.56A3.16,3.16,0,0,0,117.82,18a3.13,3.13,0,0,0,2.19-.6,2.5,2.5,0,0,0-4-.84Z"/><path class="cls-6" d="M112.92,34.74c9.16-3.63,9.93-16.42,4.94-20.55"/><path class="cls-5" d="M93.83,20.73A3.14,3.14,0,0,1,93,18.6a3.14,3.14,0,0,1,1.27-1.89,3.14,3.14,0,0,1,.79,2.13A3.14,3.14,0,0,1,93.83,20.73Z"/><path class="cls-5" d="M93.38,22.82a3.15,3.15,0,0,1-2.2-.59,3.12,3.12,0,0,1-.8-2.13,3.12,3.12,0,0,1,2.19.59A3.15,3.15,0,0,1,93.38,22.82Z"/><path class="cls-5" d="M94,26.71a3.13,3.13,0,0,1-2.25-.31,3.1,3.1,0,0,1-1.06-2,3.13,3.13,0,0,1,2.25.31A3.15,3.15,0,0,1,94,26.71Z"/><path class="cls-5" d="M95.84,30.91A2.49,2.49,0,0,1,92,29.82a2.48,2.48,0,0,1,3.89,1.09Z"/><path class="cls-5" d="M98.83,33.72a2.49,2.49,0,0,1-4,.58A3.14,3.14,0,0,1,96.68,33,3.1,3.1,0,0,1,98.83,33.72Z"/><path class="cls-5" d="M101.94,35.27a3.14,3.14,0,0,1-.87,2.1,3.11,3.11,0,0,1-2.22.52,3.15,3.15,0,0,1,.87-2.1A3.17,3.17,0,0,1,101.94,35.27Z"/><path class="cls-5" d="M106.06,36.31a3.14,3.14,0,0,1-.87,2.1,3.17,3.17,0,0,1-2.22.52,3.14,3.14,0,0,1,.87-2.1A3.17,3.17,0,0,1,106.06,36.31Z"/><path class="cls-5" d="M97,24.64a3.15,3.15,0,0,1,0,2.27,3.17,3.17,0,0,1-1.86,1.32,3.14,3.14,0,0,1,0-2.28A3.1,3.1,0,0,1,97,24.64Z"/><path class="cls-5" d="M98.51,27.93a3.17,3.17,0,0,1,.38,2.24,3.14,3.14,0,0,1-1.6,1.62,3.1,3.1,0,0,1-.38-2.24A3.1,3.1,0,0,1,98.51,27.93Z"/><path class="cls-5" d="M100.94,30.5a3.1,3.1,0,0,1,1.08,2,3.17,3.17,0,0,1-1,2,3.14,3.14,0,0,1-1.08-2A3.11,3.11,0,0,1,100.94,30.5Z"/><path class="cls-5" d="M103.41,32.69a3.16,3.16,0,0,1,2,1,3.12,3.12,0,0,1,.38,2.24,3.11,3.11,0,0,1-2-1A3.12,3.12,0,0,1,103.41,32.69Z"/><path class="cls-5" d="M96.71,21.28a3.15,3.15,0,0,1-.94,2.07,3.15,3.15,0,0,1-2.23.44,3.08,3.08,0,0,1,.94-2.06A3.12,3.12,0,0,1,96.71,21.28Z"/><path class="cls-6" d="M107.3,36.2C97.64,36.77,91.42,25.82,94,20"/><path class="cls-7" d="M108.43,13c-2-3.73-7.56-.84-6.8,2.44.42,1.8,2.05,2.47,4.66,3.27,2.33.7,4.26,1.6,4.62,3.14,1,4.46-6.29,6.39-7.34,1.87"/><line class="cls-7" x1="104.13" y1="9.39" x2="108.51" y2="28.12"/><path class="cls-8" d="M82.64,36.22c11.6,0,32.91,2.64,46.28,11.25"/></g></g></svg>